<svg height="64" viewBox="0 0 64 64" width="64" xmlns="http://www.w3.org/2000/svg"><g fill="none" fill-rule="evenodd"><path d="m10 31h9v13h-4.5c-2.4852814 0-4.5-2.0169864-4.5-4.492066z" stroke="#9c4d4d" stroke-linecap="round" stroke-linejoin="round" stroke-width="2"/><path d="m18 30h30v22.9911813c0 3.3185789-2.6887015 6.0088187-5.998845 6.0088187h-18.00231c-3.3130706 0-5.998845-2.6892258-5.998845-6.0088187z" fill="#bd7575"/><path d="m28.2333333 5c-3.4425749 0-6.2333333 2.07820713-6.2333333 6.2962963 0 4.2180892 9.4111111 13.7037037 11 13.7037037s11-9.4856145 11-13.7037037c0-4.21808917-2.7907584-6.2962963-6.2333333-6.2962963-1.912171 0-3.6232421.86970846-4.7666667 2.2388765-1.1434246-1.36916804-2.8544957-2.2388765-4.7666667-2.2388765z" fill="#ff5656"/><rect fill="#bd7575" height="3" rx="1.5" width="35" x="15" y="59"/></g></svg>